# xmcd CD database file
#
# Track frame offsets:
#	150
#	26729
#	42299
#	57469
#	83383
#	98558
#	117758
#	141527
#	156238
#	179491
#	198215
#	221478
#	241269
#	264303
#	292464
#	311691
#
# Disc length: 4379 seconds
#
# Revision: 1
# Processed by: cddbd v1.5.2PL0 Copyright (c) Steve Scherf et al.
# Submitted via: CDex 1.70beta2
#
DISCID=e8111910
DTITLE=Michel LEGRAND - La musique au pluriel-CD2-Jazz
DYEAR=2012
DGENRE=Jazz
TTITLE0=A  night in Tunisia
TTITLE1=Once upon a summertime
TTITLE2=Flight
TTITLE3=Yon must believe in spring
TTITLE4=De Delphine a Lucien
TTITLE5=Vida real
TTITLE6=Malagan Stew
TTITLE7=Once you've been in love
TTITLE8=Images
TTITLE9=Le temps des cerises
TTITLE10=The lady is a tramp
TTITLE11=Now you've gone
TTITLE12=My funny Valentine
TTITLE13=Watch what happens
TTITLE14=Django
TTITLE15=I will wait for you
EXTD=YEAR: 2012
EXTT0=
EXTT1=
EXTT2=
EXTT3=
EXTT4=
EXTT5=
EXTT6=
EXTT7=
EXTT8=
EXTT9=
EXTT10=
EXTT11=
EXTT12=
EXTT13=
EXTT14=
EXTT15=
PLAYORDER=
